<?xml version="1.0" encoding="UTF-8"?>
<svg id="Warstwa_1" xmlns="http://www.w3.org/2000/svg" version="1.1" viewBox="20 35 930 255">
  <!-- Generator: Adobe Illustrator 29.8.4, SVG Export Plug-In . SVG Version: 2.1.1 Build 6)  -->
  <path d="M207.2,45.91c24.59,1.77,48.42,9.78,69.44,22.57,34.24,20.79,60.38,55.15,69.86,94.21,3.61,14.17,4.61,29.21,3.96,43.78-6.43-2.73-12.69-5.84-19.01-8.81-14.24-6.83-28.64-13.4-42.96-20.04-2.77-1.35-4.91-3.38-4.71-6.7-.06-3.58,4.01-5.86,6.32-8.06,7.42-6.93,14.99-13.67,22.54-20.46,2.68-2.44,4.41-5.76,3.45-9.46-.44-1.98-1.75-3.33-3.02-4.84-9.41-10.26-18.68-20.73-28.13-30.94-2.8-2.9-6.78-3.38-10.58-2.6-2.97,1.11-5.52,3.67-8.03,5.57-32.38,25.46-65.43,51.91-97.62,77.48-2.48,1.78-.79,4.42.18,6.54,3.67.81,7.23,1.98,10.85,2.97,4.01,1.17,8.53.24,12.66-.12,3.5-.45,7.22-.38,10.63-1.3,2.39-.99,4.48-2.93,6.51-4.51,11.94-9.74,24.07-19.23,36.03-28.94,1.75-1.35,3.24-2.37,5.59-1.85,3.06.66,3.71,5.06,1.49,7.03-6.05,5.29-12.59,10.08-18.72,15.29-6.64,5.45-13.68,10.44-20.05,16.19,2.65,3.13,6.22,5.68,8.42,9.12,1.13,1.9-.77,4.04-1.69,5.65-1.65-.22-3.81.24-5.03-1.04-3.35-2.88-6.28-6.27-9.38-9.42-5.25.85-10.55,1.24-15.82,1.95,4.06,4.15,8.02,8.36,11.9,12.68,4.6,4.91,12.06,4.9,17.65,1.74,1.55-.68,3.26-2.21,4.94-2.32,1.85,1.2,3.29,2.66,5.29,3.66,3.16,1.41,6.91.88,9.52-1.42,9.59-8.19,18.78-16.9,28.41-25.05,26.12,15.06,52.13,30.34,78.24,45.42-3.13,15.51-9.96,30.5-18.29,43.9-5.91,9.46-13.07,17.78-20.68,25.89-3.81.02-7.62,0-11.43-.05,0-7.01.04-14.03,0-21.05-10.06-.03-20.13-.06-30.2-.06-.03,16.27,0,32.53-.02,48.79-6.25-.02-12.5-.04-18.75-.13.05-13.47.1-26.95-.06-40.42-6.67-.06-13.34-.03-20-.03,0-7.45-.06-14.89,0-22.33-12.84-.03-25.68-.02-38.53.05-.06,15.32-.06,30.66.01,45.98-6.24.08-12.48.06-18.72.02.08-23.6-.01-47.2.03-70.8-7.06.05-14.11.02-21.17,0,.06-18.29.1-36.59-.03-54.88-3.93,0-7.87-.02-11.81,0,.1-13.11-.02-26.21.04-39.32-6.37-.17-12.73-.08-19.1-.05-.12,13.12.13,26.23-.07,39.35-4.31.02-8.61.08-12.92.1-.15,18.29.04,36.57-.03,54.86-7.02,0-14.03-.05-21.05-.03-.02,10.36.04,20.72-.02,31.07-7.53.08-15.06,0-22.6-.07-16.7-29.19-24.04-63.28-18.58-96.66,6-41.01,30.33-78.17,64.7-101.09,8.4-6.01,17.89-10.67,27.26-14.98,22.94-9.66,48.06-13.6,72.88-12.02Z"/>
  <path d="M387.9,106.09c6.34-.42,12.66-.24,19-.28.08,17.39-.01,34.78-.06,52.16.11,3.05.5,6.42,3.46,8.05,3.21,1.55,7.37,1.57,10.87,1.57,11.34-.08,22.68.02,34.02-.04,3.13-.06,7.31-.57,9.5-3.06,1.9-2.56,1.85-6.48,1.87-9.53-.08-16.24.04-32.48-.04-48.71,6.32.04,12.65-.01,18.97-.01.07,13.57-.02,27.14.04,40.72,0,6.22.23,12.84-.79,18.99-1.09,5.95-4.47,11.69-10.11,14.35-8.81,4.6-20.77,3.95-30.46,3.96-12.29-.25-23.91.68-35.81-1.01-5.91-1.08-11.63-3.15-15.62-7.85-3.94-4.31-4.5-10.88-4.82-16.44-.03-17.6.02-35.25-.02-52.87Z"/>
  <path d="M703.91,150.23c-3.08-3.14-6.89-4.09-11.03-5.08,4-1.37,7.69-2.61,9.65-6.72,2.78-6.5,2.37-14.42.2-21.04-2.11-5.78-7.84-8.49-13.49-9.65-4.97-.67-10.06-.99-15.07-1.1-21.41.03-42.83-.07-64.24-.04-.04,25.98.06,51.96-.05,77.94,23.78-.05,47.54.05,71.31.01,6.55-.19,14.36-.93,20.02-4.49,5.09-3.25,6.29-9.49,6.55-15.09.08-5.06.2-11.03-3.85-14.74ZM628.72,122.4c16.17-.13,32.32.01,48.49-.03,2.84.04,6.64.5,8.23,3.19,1.02,2.79.88,6.76-.05,9.57-1.3,2.88-5.5,3.1-8.21,3.26-16.14.08-32.32.03-48.46,0-.05-5.33-.05-10.66,0-15.99ZM688.62,165.49c-1.99,3.33-7.01,3.49-10.44,3.7-16.5.02-33.01.07-49.5.03-.06-5.48-.05-10.97.01-16.46,10.83.12,21.67-.23,32.48.33,7.78-.06,16.45-1.03,24.12.58,4.77,1.24,5.11,8.18,3.33,11.82Z"/>
  <path d="M779.83,107.37c-7.99.04-16.09-.31-24.06.11-3.69,5.42-6.91,11.23-10.14,16.93-7.1,12.24-14.37,24.35-21.32,36.68-4.82,7.74-8.94,15.87-13.89,23.53,7.19.18,14.38.14,21.57.05,2.56-4.84,5.57-9.41,8.06-14.29,18.67.25,37.35.02,56.03.13,2.81,4.7,5.6,9.4,8.33,14.14,7.1.23,14.21.14,21.31.12-15.24-25.83-30.36-51.74-45.89-77.4ZM748.91,155.05c4.89-9.38,10.42-18.43,15.6-27.66.85-1.49,1.71-3.03,2.75-4.39,1.9-.01,2.11,1.47,3.07,2.77,5.64,9.86,11.31,19.72,17.22,29.42-12.88-.03-25.76.05-38.64-.14Z"/>
  <path d="M835.05,107.44c7.42-.02,14.84-.13,22.26-.03,13.37,12.12,27.06,23.92,40.73,35.7,7.54,6.99,15.57,13.39,22.92,20.61,0-18.74.02-37.49-.04-56.23,6.26-.09,12.51-.1,18.77-.05.01,25.81.04,51.62-.04,77.43-7.17.38-14.34-.05-21.52.2-21.19-18.99-43.02-37.37-64.29-56.3-.05,18.67.02,37.34-.08,56.01-6.27.11-12.54.03-18.81.03.18-25.79,0-51.58.1-77.37Z"/>
  <path d="M286.16,120.36c2.6,1.38,4.3,2.08,3.77,5.45-1.2,2.89-5.07,4.95-7.61,6.56-1.15-.4-2.3-.8-3.46-1.2-.41-1.4-1.15-2.89-1.04-4.35,2.11-3.02,5.11-4.85,8.34-6.46Z"/>
  <path d="M578.01,158.94c5.69-1.11,11.81-2.89,14.82-8.32,3.54-6.87,2.71-15.17,2.76-22.68-.05-6.07-2.04-12.59-7.27-16.16-7.03-4.75-15.94-5.03-24.14-5.28-21.2.03-42.53-.2-63.71.06-.36,1.44-.49,2.91-.51,4.4,0,24.44.06,48.88-.04,73.32,6.29-.03,12.58,0,18.87.07.09-8.01.06-16.03.05-24.05,12.75-.18,25.51-.09,38.25-.03,4.48,6.1,9.24,11.98,13.78,18.03,1.53,2,2.91,4.24,4.72,6.01,7.43.51,15.03.15,22.49.08-6.39-8.74-13.62-16.77-20.07-25.45ZM574.9,142.73c-2.26,2.39-6.68,2.37-9.73,2.49-15.42,0-30.86-.03-46.28-.03-.03-7.54.01-15.09-.01-22.63,15.43.03,30.86.04,46.29.02,2.87.06,6.45.06,9.02,1.43,3.45,2.17,2.71,6.44,2.89,9.95-.16,2.82.05,6.67-2.18,8.77Z"/>
  <path d="M275.3,133.9c.85,1.86.64,3.83-.96,5.21-3.19,3.01-6.91,5.98-10.45,8.57-2.18,1.89-6.43.41-6.35-2.67-.74-3.15,3.7-5.14,5.6-7.09,2-1.63,3.92-3.45,6.06-4.9,1.9-1.38,4.61-.89,6.1.88Z"/>
  <path d="M414.55,203.26c11.33,19.89,22.55,39.78,33.96,59.67,11.22-19.68,22.67-39.91,34.03-59.62,7.1-.01,14.21-.1,21.3.11-14.08,24.88-29.09,49.26-42.98,74.24-8.08-.07-16.25.23-24.31-.17-2-2.7-3.45-5.84-5.2-8.72-12.84-21.77-25.43-43.68-38.22-65.48,7.14-.11,14.28-.15,21.42-.03Z"/>
  <path d="M513.67,203.44c6.25-.19,12.54-.05,18.8,0,.1,24.77-.16,49.53.08,74.3-6.31.79-12.57.27-18.91.46-.07-24.89-.22-49.88.03-74.76Z"/>
  <path d="M575.17,203.52c20.41.04,40.83-.03,61.24.17.08,5.01.07,10.02.03,15.03-18.42.09-36.85.02-55.27,0-4.22.04-9.18-.38-13.19,1.02-2.69,1.06-3.23,3.58-3.14,6.21.1,2.07.28,4.91,2.43,5.93,2.96,1.33,6.71,1.43,9.9,1.45,13.34-.03,26.68-.13,40.03,0,4.73.09,9.78.66,14.19,2.47,3.73,1.6,7.19,4.38,8.62,8.29,2.02,5,1.86,10.56,1.63,15.86-.3,4.64-1.3,9.34-4.85,12.63-4.68,4.74-12.33,5.2-18.61,5.59-23.63-.03-47.15-.05-70.78-.05-.08-5.16-.06-10.32-.02-15.48,22.61-.03,45.21.04,67.82-.04,2.74-.09,5.26-.08,7.29-2.23,1.32-2.93,1.48-7.01.03-9.92-1.46-2.18-4.97-2.24-7.33-2.3-14,0-28.01-.01-42.02.07-4.94,0-10.03-.39-14.79-1.75-4.8-1.38-9.13-4.91-10.8-9.7-2.07-6.8-1.88-13.96-.28-20.84,1.28-4.77,4.91-8.36,9.49-10.05,5.74-2.01,12.34-2.35,18.38-2.37Z"/>
  <path d="M654.59,203.58c6.26.02,12.53-.02,18.79.06.06,22.11-.1,44.22.04,66.32.11,2.77-.18,5.51-.29,8.28-6.2-.11-12.39-.1-18.59-.04-.05-24.87-.15-49.75.05-74.62Z"/>
  <path d="M792.31,237.96c-.03-7.53.66-16.09-2.91-23.02-3.29-6.1-9.5-8.9-16.03-10.13-7.05-1.07-14.09-1.23-21.2-1.1-11.67.04-23.34-.08-35,.02-7.71.47-16.14.81-22.47,5.8-4.88,3.75-6.89,9.46-7.24,15.44-.32,6.65.01,13.33-.08,19.99.12,7.49-.71,15.05,2.83,21.94,2.91,5.76,8.9,8.67,14.92,10.03,6.2,1.19,12.75,1.35,19.04,1.26,12.67,0,25.33-.04,38,.04,6.39-.16,13.75-.73,19.49-3.77,4.83-2.49,8.12-7.13,9.37-12.37,1.94-7.69,1.15-16.15,1.28-24.13ZM770.95,259.78c-2.89,2.1-7.33,2.35-10.78,2.47-14,.03-28.01.07-42.01-.03-4-.31-9.31-.6-11.22-4.83-1.35-5.53-.42-11.74-.7-17.43-.03-4.39-.48-9.19.3-13.5.44-2.29,1.54-4.38,3.73-5.4,4.28-1.89,9.33-1.43,13.9-1.46,11.67-.06,23.33.14,35-.02,3.81,0,8.8.08,12.01,2.41,1.77,1.7,2.27,4.62,2.37,6.97.14,6.99-.04,14,.07,21-.03,3.18-.08,7.52-2.67,9.82Z"/>
  <path d="M805.9,203.72c7.19.04,14.37-.01,21.56-.02,7.04,5.59,13.76,11.54,20.63,17.35,14.21,12.34,28.8,24.31,42.92,36.76.64-8.31-.13-16.54.05-24.85.11-9.75-.27-19.52.19-29.25,6.13.06,12.27-.01,18.4-.05.03,24.85.15,49.71-.02,74.55-7.15-.09-14.31-.04-21.46-.06-21.19-17.86-42.4-35.94-63.68-53.67.01,17.91.08,35.82.01,53.74-6.22-.03-12.44-.05-18.66-.05.12-24.81-.03-49.63.06-74.45Z"/>
</svg>
